<?xml version="1.0" standalone="no"?>
<!DOCTYPE svg PUBLIC "-//W3C//DTD SVG 20010904//EN"
 "http://www.w3.org/TR/2001/REC-SVG-20010904/DTD/svg10.dtd">
<svg version="1.0" xmlns="http://www.w3.org/2000/svg"
 width="1280.000000pt" height="960.000000pt" viewBox="0 0 1280.000000 960.000000"
 preserveAspectRatio="xMidYMid meet">
<g transform="translate(0.000000,960.000000) scale(0.100000,-0.100000)"
fill="#000000" stroke="none">
<path d="M7700 8374 c-498 -46 -946 -285 -1257 -671 -40 -51 -80 -93 -87 -93
-8 0 -48 42 -90 94 -108 133 -296 299 -439 388 -65 40 -259 136 -333 164 -122
46 -295 83 -444 96 -315 28 -589 -29 -890 -183 -410 -211 -721 -574 -854 -999
-71 -229 -81 -295 -80 -580 0 -230 3 -269 27 -400 14 -80 33 -171 41 -202 9
-32 23 -84 31 -115 35 -133 143 -407 226 -573 86 -173 221 -395 353 -578 44
-62 88 -123 96 -136 8 -13 56 -72 105 -131 50 -60 108 -131 131 -160 51 -64
100 -105 124 -105 30 0 67 20 79 44 6 11 20 45 31 75 46 118 143 221 271 285
108 54 196 71 332 63 80 -5 110 -12 176 -40 189 -82 289 -191 363 -393 50
-137 197 -562 208 -599 5 -16 22 -68 39 -114 17 -47 54 -152 82 -235 27 -83
54 -160 59 -171 4 -11 11 -29 13 -40 9 -34 116 -339 128 -361 18 -35 198 -139
239 -138 41 0 202 94 231 134 10 14 135 378 279 810 144 431 273 805 285 831
72 141 203 252 358 304 67 22 101 27 187 28 175 0 298 -46 417 -156 74 -69
116 -130 145 -209 26 -72 59 -101 102 -92 40 8 59 26 165 154 279 336 481 644
642 980 33 69 66 139 74 155 8 17 30 75 50 130 20 55 40 110 45 123 6 13 10
33 10 45 0 13 4 27 9 33 12 12 55 182 80 314 52 275 55 613 7 838 -73 349
-224 631 -466 872 -318 318 -717 497 -1140 513 -63 3 -135 3 -160 1z"/>
<path d="M10329 6330 c-135 -23 -218 -98 -263 -236 l-17 -51 -82 -10 c-46 -6
-96 -17 -113 -26 -16 -9 -38 -20 -50 -26 -33 -15 -101 -98 -119 -144 -8 -23
-33 -147 -54 -274 -21 -128 -44 -239 -51 -248 -7 -8 -22 -15 -34 -15 -45 0
-117 -33 -165 -76 -65 -58 -99 -133 -117 -254 -7 -52 -18 -120 -24 -150 -5
-30 -19 -116 -30 -190 -23 -150 -44 -283 -65 -410 -24 -149 -65 -421 -65 -430
0 -13 -658 -658 -804 -789 -75 -67 -94 -79 -183 -113 -92 -35 -272 -31 -286 7
-4 8 2 40 12 72 10 32 28 99 41 148 12 50 26 99 31 110 5 11 27 88 50 170 42
154 121 442 158 575 71 253 -49 445 -312 502 -106 22 -241 -17 -336 -98 -81
-70 -105 -122 -238 -518 -68 -204 -130 -391 -138 -416 -7 -25 -67 -205 -133
-400 -159 -471 -340 -1022 -358 -1090 -68 -254 -95 -561 -75 -842 10 -139 43
-429 70 -608 17 -117 62 -394 72 -447 l10 -53 829 0 c746 0 828 2 834 16 3 9
6 154 6 322 0 222 4 335 15 407 18 120 26 145 78 255 38 79 54 98 222 265 200
200 466 461 990 971 874 850 878 853 917 904 60 78 114 191 162 345 31 98 69
304 116 630 12 77 23 146 26 154 2 8 9 55 14 105 6 50 17 141 25 201 8 61 24
184 35 275 11 91 25 199 30 240 14 104 59 458 71 555 38 320 38 338 14 421
-33 115 -169 214 -294 214 -33 0 -80 -5 -104 -12 -40 -10 -47 -9 -117 25 -83
40 -133 49 -201 37z"/>
<path d="M2239 6275 c-20 -7 -55 -25 -77 -40 -37 -24 -45 -26 -73 -16 -59 20
-178 14 -235 -13 -72 -33 -129 -88 -161 -154 -24 -49 -28 -69 -27 -142 0 -47
7 -139 17 -205 74 -535 100 -725 117 -860 6 -44 19 -138 30 -210 10 -71 26
-184 35 -250 33 -241 96 -615 134 -792 38 -180 104 -350 179 -460 37 -54 226
-246 422 -428 83 -77 242 -230 485 -465 66 -64 154 -147 195 -185 117 -107
427 -403 742 -709 l287 -278 50 -102 c27 -55 52 -114 55 -131 34 -172 36 -200
36 -451 0 -144 3 -289 6 -323 l7 -61 833 0 833 0 5 32 c3 18 12 76 20 128 85
528 121 898 113 1170 -6 216 -17 330 -47 465 -34 159 -66 259 -305 950 -53
154 -105 305 -115 335 -10 30 -50 147 -89 260 -101 289 -174 500 -237 682 -65
193 -89 240 -153 310 -191 209 -554 155 -666 -99 -41 -91 -38 -185 10 -343 21
-69 41 -138 45 -155 7 -27 40 -141 193 -665 30 -102 52 -190 50 -197 -7 -17
-40 -23 -135 -23 -147 0 -245 43 -384 171 -180 166 -764 730 -764 738 0 4 -14
88 -30 187 -17 98 -64 379 -105 624 -41 244 -80 460 -86 480 -18 54 -60 115
-102 149 -40 31 -133 71 -167 71 -32 0 -46 38 -69 185 -53 335 -71 388 -157
464 -54 47 -148 81 -225 81 -31 0 -51 5 -54 13 -38 110 -52 135 -99 183 -66
65 -139 94 -234 93 -37 0 -83 -6 -103 -14z"/>
</g>
</svg>
